<svg width="25" height="30" fill="none" xmlns="http://www.w3.org/2000/svg"><g clip-path="url(#clip0_555_5653)"><path d="M24.971 8.934a8.554 8.554 0 00-1.586-4.955c-2.807-4.003-8.3-5.175-12.278-2.636L4.125 5.785a7.934 7.934 0 00-3.637 5.37 7.724 7.724 0 00-.122 1.49c0 1.366.342 2.709.977 3.93a7.886 7.886 0 00-1.221 3.002 8.587 8.587 0 001.465 6.469c2.782 3.978 8.3 5.175 12.253 2.636l6.982-4.443a7.982 7.982 0 003.613-5.37c.097-.488.122-1 .122-1.489 0-1.367-.342-2.71-.977-3.906a7.84 7.84 0 001.196-3.002 5.655 5.655 0 00.195-1.538zm-2.636.171c-.049.244-.097.488-.195.708l-.146.44-.391-.294c-.903-.683-1.929-1.171-3.027-1.513l-.268-.073.024-.293v-.147a1.8 1.8 0 00-.317-1 1.93 1.93 0 00-1.514-.806c-.146 0-.317.024-.464.073-.17.049-.317.122-.488.22l-7.713 4.906c-.39.244-.635.635-.733 1.074 0 .122-.024.196-.024.293 0 .366.122.708.317 1.001.342.488.903.806 1.514.806.146 0 .317-.025.463-.074.171-.049.342-.122.489-.195l2.953-1.88a5.538 5.538 0 011.563-.683 6.642 6.642 0 011.537-.195c2.002 0 3.882.976 5.029 2.636a5.689 5.689 0 011.05 3.295c0 .342-.025.684-.098 1.001a5.382 5.382 0 01-2.417 3.564l-7.713 4.906a5.539 5.539 0 01-1.563.684 6.64 6.64 0 01-1.537.195 6.106 6.106 0 01-5.029-2.636 5.688 5.688 0 01-1.05-3.295c0-.342.025-.66.074-1.001.049-.244.097-.488.195-.708l.146-.44.391.294A10.668 10.668 0 006.42 21.48l.293.097-.025.293v.147c0 .366.098.708.318 1a1.8 1.8 0 001.513.806c.147 0 .317-.024.464-.073.17-.049.317-.122.464-.195L17.16 18.6c.464-.292.757-.805.757-1.367 0-.366-.122-.707-.317-1a1.863 1.863 0 00-1.514-.806c-.17 0-.317.025-.463.073-.171.05-.318.123-.464.22l-2.954 1.855a5.25 5.25 0 01-1.562.684 6.64 6.64 0 01-1.538.195 6.106 6.106 0 01-5.029-2.636 5.744 5.744 0 01-1.05-3.296c0-.341.025-.659.098-1a5.434 5.434 0 012.393-3.564L13.23 3.05a5.536 5.536 0 011.563-.683 6.637 6.637 0 011.537-.196c2.026 0 3.906.977 5.053 2.637a5.745 5.745 0 011.05 3.295c-.024.342-.049.66-.098 1.001z" fill="#FF3E00"/></g><defs><clipPath id="clip0_555_5653"><path fill="#fff" d="M0 0h24.971v30H0z"/></clipPath></defs></svg>